<svg width="93" height="88" viewBox="0 0 93 88" fill="none" xmlns="http://www.w3.org/2000/svg">
<path d="M50.8849 44.2991H41.606C41.606 44.2991 40.9076 43.002 39.5108 40.4079C38.114 37.6143 36.6174 33.6234 35.021 28.4352C33.6242 23.247 32.9258 16.7618 32.9258 8.97955V0H59.5651V9.27886C59.5651 16.8616 58.8667 23.247 57.4699 28.4352C56.073 33.6234 54.5764 37.6143 52.9801 40.4079C51.5833 43.002 50.8849 44.2991 50.8849 44.2991Z" fill="#0B0307"/>
<path d="M47.5916 39.8102L44.8977 48.4904C44.8977 48.4904 43.4011 48.7897 40.4079 49.3884C37.4147 49.987 33.2243 50.1865 27.8366 49.987C22.4488 49.7874 16.0634 48.4904 8.68022 46.0958L0 43.402L8.3809 17.96L17.0611 20.6538C24.4443 23.0484 30.3309 25.7422 34.7209 28.7354C39.3104 31.7286 42.6029 34.3227 44.5984 36.5177C46.5938 38.7127 47.5916 39.8102 47.5916 39.8102Z" fill="#0B0307"/>
<path d="M42.5029 46.9924L49.9859 41.6047C49.9859 41.6047 51.3827 42.2034 54.1763 43.4006C56.97 44.5979 60.462 46.8927 64.6525 50.285C69.0425 53.4777 73.4325 58.2668 77.8225 64.6522L83.2102 72.1352L61.6593 87.999L55.9722 80.2168C51.5822 74.0309 48.3895 68.4436 46.3941 63.4549C44.5982 58.4663 43.5007 54.4754 43.1016 51.4822C42.7025 48.489 42.5029 46.9924 42.5029 46.9924Z" fill="#0B0307"/>
<path d="M47.5923 48.4904L44.8984 39.8102C44.8984 39.8102 45.8962 38.7127 47.8916 36.5177C49.8871 34.1231 53.1796 31.4293 57.7691 28.4361C62.3587 25.4429 68.345 22.8488 75.7282 20.6538L84.1091 17.96L92.49 43.402L83.5105 46.0958C76.3268 48.4904 70.0412 49.7874 64.6534 49.987C59.2657 50.1865 55.0753 49.987 52.0821 49.3884C49.0889 48.7897 47.5923 48.4904 47.5923 48.4904Z" fill="#0B0307"/>
<path d="M43.0125 51.3103L37.5151 56.8079C37.5151 56.8079 45.855 48.928 45.4559 51.9211C45.1922 54.5671 44.9268 58.5103 43.0125 64.1378C41.2166 69.1264 40.2721 74.2448 35.6826 80.6302L31.1295 88L9.2793 72.1361L14.9663 64.6532C19.5559 58.4673 30.2704 52.6705 34.4609 49.4778C38.6514 46.0855 35.5318 50.0643 38.1259 48.867C40.9195 47.4702 43.0125 51.3103 43.0125 51.3103Z" fill="#E471B6"/>
<path d="M49.6002 27.4744L46.9891 29.5963L49.6168 33.0195L52.4364 30.7295L52.4373 30.7281C52.9111 30.3429 52.9926 29.6505 52.6213 29.1657L51.494 27.6981C51.2746 27.4126 50.9506 27.2293 50.5943 27.1867C50.237 27.1454 49.8799 27.2487 49.6002 27.4744ZM52.9989 31.1414L50.0251 33.5692L50.3824 34.009C50.7338 34.4426 51.4324 35.0881 51.5774 35.6189C51.7236 36.1568 51.5008 36.7443 50.8431 37.3126L50.2563 37.6972C50.0419 37.8384 49.6702 38.0245 49.4184 38.0776C48.8387 38.2008 48.39 38.1368 47.9723 38.0285C47.724 37.9643 47.6542 38.0641 47.8126 38.2658L48.0084 38.5142L48.0117 38.5124C48.5194 39.1565 49.4524 39.272 50.1042 38.7739L55.4022 34.7171L55.4008 34.7161C55.9122 34.3242 56.0125 33.5933 55.6249 33.0786L54.284 31.2965C54.1367 31.1026 53.9161 30.9752 53.6741 30.9463C53.4316 30.9151 53.1877 30.9864 52.9989 31.1414ZM50.1867 34.8528L45.7652 29.5745C45.408 29.1492 44.7939 29.0501 44.3204 29.3405L38.6334 32.8463C38.0637 33.1974 37.7272 33.8293 37.7518 34.4969L38.1138 44.3077C38.1443 45.1528 37.8528 45.9772 37.2983 46.6136L31.4398 53.3441L42.622 61.1635L47.2133 53.9184C47.4984 53.4694 48.1332 52.9573 48.6263 52.757C54.2854 50.4602 55.6296 47.8529 57.5184 45.1518L55.5352 46.2901C54.6802 46.7805 53.526 46.5267 52.9409 45.7335C50.734 42.7449 47.5905 38.8166 44.3305 35.6657L43.7807 36.074C46.1396 39.5509 46.925 42.8214 45.6027 45.8137C45.5077 46.0322 45.2599 46.0943 45.0629 45.9566C44.8674 45.8199 44.7963 45.5348 44.8885 45.3143C46.0007 42.6254 45.044 39.6294 42.9365 36.4605C42.8061 36.2661 42.8383 35.981 43.0094 35.8219L44.7527 34.1998L44.7537 34.1985C44.8026 34.1521 44.873 34.1312 44.9398 34.1449C45.009 34.1581 45.0653 34.2016 45.0958 34.2643L45.5472 35.222C45.6401 35.417 45.8394 35.6989 46.0039 35.8387C46.9311 36.6357 47.9649 37.0737 49.1042 37.1539C49.4571 37.1158 49.7954 36.9745 50.1042 36.7692C50.7008 36.3707 50.649 35.4053 50.1867 34.8528ZM55.7252 35.1558L50.293 39.3249C50.1058 39.4686 49.9832 39.6823 49.9527 39.9149C49.9226 40.1499 49.9863 40.3865 50.13 40.5737L51.2146 41.9784C51.5468 42.4068 52.1562 42.5067 52.607 42.2046L58.1902 38.4693C58.3412 38.3684 58.4447 38.2116 58.4801 38.034C58.5155 37.8564 58.4778 37.6711 58.377 37.52L56.9277 35.3524L56.9268 35.3538C56.7991 35.1614 56.5974 35.0306 56.3696 34.9931C56.1419 34.9557 55.9081 35.0153 55.7252 35.1558ZM57.5259 39.6525L53.1956 42.6739L53.1952 42.6716C52.8785 42.8941 52.7785 43.3176 52.9625 43.6569L53.794 45.1902L53.7926 45.1892C53.9148 45.413 54.1215 45.5781 54.3669 45.6465C54.6113 45.7162 54.8739 45.6831 55.0932 45.5556L59.6272 42.9367C59.8455 42.8106 60.0027 42.6005 60.0626 42.3554C60.1216 42.1117 60.0781 41.852 59.942 41.6392L58.8341 39.9106C58.6984 39.7001 58.4825 39.5512 58.2357 39.5025C57.989 39.4538 57.7324 39.5077 57.5246 39.6515L57.5259 39.6525Z" fill="#E471B6"/>
</svg>
